<svg width="4549" height="720" viewBox="0 0 4549 720" fill="none" xmlns="http://www.w3.org/2000/svg">
<path d="M197 360L465 710H373L127 387L70 710H1.19209e-06L123 10.9999H193L135 339L497 10.9999H586L197 360ZM761.359 10.9999L638.359 710H568.359L691.359 10.9999H761.359ZM1323.88 710H1253.88L970.875 122L866.875 710H796.875L919.875 10.9999H989.875L1273.88 598L1376.88 10.9999H1446.88L1323.88 710ZM1666.42 301H2014.42V408H1666.42V301ZM1676.42 601H2071.42V710H1546.42V9.99995H2057.42V119H1676.42V601ZM2358.34 710V120H2126.34V9.99995H2720.34V120H2488.34V710H2358.34ZM3309.91 9.99995H3439.91V710H3309.91V9.99995ZM2947.91 710H2817.91V9.99995H2947.91V710ZM3319.91 410H2936.91V299H3319.91V410ZM3627.48 710V9.99995H3757.48V710H3627.48ZM4270.81 720C4217.48 720 4167.81 711.333 4121.81 694C4076.48 676 4036.81 651 4002.81 619C3969.48 586.333 3943.48 548 3924.81 504C3906.15 460 3896.81 412 3896.81 360C3896.81 308 3906.15 260 3924.81 216C3943.48 172 3969.81 134 4003.81 102C4037.81 69.3333 4077.48 44.3333 4122.81 27C4168.15 8.99997 4217.81 -3.8147e-05 4271.81 -3.8147e-05C4329.15 -3.8147e-05 4381.48 9.99997 4428.81 30C4476.15 49.3333 4516.15 78.3333 4548.81 117L4464.81 196C4439.48 168.667 4411.15 148.333 4379.81 135C4348.48 121 4314.48 114 4277.81 114C4241.15 114 4207.48 120 4176.81 132C4146.81 144 4120.48 161 4097.81 183C4075.81 205 4058.48 231 4045.81 261C4033.81 291 4027.81 324 4027.81 360C4027.81 396 4033.81 429 4045.81 459C4058.48 489 4075.81 515 4097.81 537C4120.48 559 4146.81 576 4176.81 588C4207.48 600 4241.15 606 4277.81 606C4314.48 606 4348.48 599.333 4379.81 586C4411.15 572 4439.48 551 4464.81 523L4548.81 603C4516.15 641 4476.15 670 4428.81 690C4381.48 710 4328.81 720 4270.81 720Z" fill="black"/>
</svg>
